<svg width="300" height="300" viewBox="0 0 300 300" fill="none" xmlns="http://www.w3.org/2000/svg">
<path d="M202.201 189.624C191.877 185.088 171.071 159.277 164.657 149.578H171.853C183.742 149.578 193.754 140.661 195.005 128.929C195.005 128.303 195.005 127.834 195.162 127.364C195.162 127.052 195.162 126.739 195.162 126.269C195.162 113.286 184.524 102.961 171.853 102.961H97.7045C74.8654 102.961 56.25 84.3456 56.25 61.5066C56.25 58.3779 58.7529 55.875 61.7251 55.875H171.853C206.268 55.875 242.091 83.407 242.091 126.113C242.091 154.271 225.666 178.361 202.201 189.624Z" fill="url(#paint0_linear)"/>
<path d="M137.123 188.998V224.664C137.123 235.145 128.519 243.749 118.038 243.749H95.6684C92.5397 243.749 90.0369 241.246 90.0369 238.274V157.555C90.1933 129.554 121.167 167.567 137.123 188.998Z" fill="url(#paint1_linear)"/>
<path d="M164.498 149.578L157.459 142.069C150.263 134.404 135.871 128.147 125.39 128.147H109.121C98.6406 128.147 90.0369 136.751 90.0369 147.232V158.964C90.0369 153.802 91.4446 150.517 93.6347 149.422C96.1376 148.014 99.7355 149.422 103.803 153.645L108.339 158.495L137.123 189.155L180.298 234.99C185.617 240.622 192.969 243.75 200.634 243.75H236.77C239.586 243.75 242.089 242.029 243.184 239.527C244.279 236.867 243.809 233.895 241.932 231.861L202.199 189.625L164.498 149.578Z" fill="url(#paint2_linear)"/>
<defs>
<linearGradient id="paint0_linear" x1="129.049" y1="158.834" x2="155.059" y2="81.5838" gradientUnits="userSpaceOnUse">
<stop offset="0.00189592" stop-color="#A61C31"/>
<stop offset="0.5" stop-color="#FB0F32"/>
<stop offset="1" stop-color="#FF4747"/>
</linearGradient>
<linearGradient id="paint1_linear" x1="125.778" y1="177.086" x2="80.2603" y2="231.187" gradientUnits="userSpaceOnUse">
<stop offset="0.00189592" stop-color="#A61C31"/>
<stop offset="0.5" stop-color="#FB0F32"/>
<stop offset="1" stop-color="#FF4747"/>
</linearGradient>
<linearGradient id="paint2_linear" x1="237.693" y1="246.767" x2="104.868" y2="134.404" gradientUnits="userSpaceOnUse">
<stop offset="0.00189592" stop-color="#A61C31"/>
<stop offset="0.5" stop-color="#FB0F32"/>
<stop offset="1" stop-color="#FF4747"/>
</linearGradient>
</defs>
</svg>
