<svg xmlns="http://www.w3.org/2000/svg" viewBox="0 0 1000 1000"><defs><style>.cls-1{fill:#4b4b50;}.cls-2{fill:#414146;}.cls-3{fill:#646469;}.cls-4{fill:#323237;}.cls-5{fill:#28282d;}.cls-6{fill:#fa1919;}.cls-7{fill:#fff;}</style></defs><title>Asset 1</title><g id="Layer_2" data-name="Layer 2"><g id="Artboard_6" data-name="Artboard 6"><circle class="cls-1" cx="500" cy="500" r="500"/><path class="cls-2" d="M999.35,525.06A448.56,448.56,0,0,0,868,230.9c-.17-.16-.34-.33-.5-.5s-.34-.33-.5-.5-.34-.33-.5-.5-.34-.33-.5-.5-.34-.33-.5-.5-.34-.33-.5-.5-.34-.33-.5-.5-.34-.33-.5-.5-.34-.33-.5-.5-.34-.33-.5-.5-.34-.33-.5-.5-.34-.33-.5-.5-.34-.33-.5-.5-.34-.33-.5-.5-.34-.33-.5-.5-.34-.33-.5-.5-.34-.33-.5-.5-.34-.33-.5-.5-.34-.33-.5-.5-.34-.33-.5-.5-.34-.33-.5-.5-.34-.33-.5-.5-.34-.33-.5-.5-.34-.33-.5-.5-.34-.33-.5-.5-.34-.33-.5-.5-.34-.33-.5-.5-.34-.33-.5-.5-.34-.33-.5-.5-.34-.33-.5-.5-.34-.33-.5-.5-.34-.33-.5-.5-.34-.33-.5-.5-.34-.33-.5-.5-.34-.33-.5-.5-.34-.33-.5-.5-.34-.33-.5-.5-.34-.33-.5-.5-.34-.33-.5-.5-.34-.33-.5-.5-.34-.33-.5-.5-.34-.33-.5-.5-.34-.33-.5-.5-.34-.33-.5-.5-.34-.33-.5-.5-.34-.33-.5-.5-.34-.33-.5-.5-.34-.33-.5-.5-.34-.33-.5-.5-.34-.33-.5-.5-.34-.33-.5-.5-.34-.33-.5-.5-.34-.33-.5-.5-.34-.33-.5-.5-.34-.33-.5-.5-.34-.33-.5-.5-.34-.33-.5-.5-.34-.33-.5-.5-.34-.33-.5-.5-.34-.33-.5-.5-.34-.33-.5-.5-.34-.33-.5-.5-.34-.33-.5-.5-.34-.33-.5-.5-.34-.33-.5-.5-.34-.33-.5-.5-.34-.33-.5-.5-.34-.33-.5-.5-.34-.33-.5-.5-.34-.33-.5-.5-.34-.33-.5-.5-.34-.33-.5-.5-.34-.33-.5-.5-.34-.33-.5-.5-.34-.33-.5-.5-.34-.33-.5-.5-.34-.33-.5-.5-.34-.33-.5-.5-.34-.33-.5-.5-.34-.33-.5-.5-.34-.33-.5-.5-.34-.33-.5-.5-.34-.33-.5-.5-.34-.33-.5-.5-.34-.33-.5-.5-.34-.33-.5-.5-.34-.33-.5-.5-.34-.33-.5-.5-.34-.33-.5-.5-.34-.33-.5-.5-.34-.33-.5-.5-.34-.33-.5-.5-.34-.33-.5-.5-.34-.33-.5-.5-.34-.33-.5-.5-.34-.33-.5-.5-.34-.33-.5-.5-.34-.33-.5-.5-.34-.33-.5-.5h0A448.57,448.57,0,0,1,950,499.35c0,248.53-201.47,450-450,450A448.63,448.63,0,0,1,182.05,817.8l.5.5.5.5.5.5.5.5.5.5.5.5.5.5.5.5.5.5.5.5.5.5.5.5.5.5.5.5.5.5.5.5.5.5.5.5.5.5.5.5.5.5.5.5.5.5.5.5.5.5.5.5.5.5.5.5.5.5.5.5.5.5.5.5.5.5.5.5.5.5.5.5.5.5.5.5.5.5.5.5.5.5.5.5.5.5.5.5.5.5.5.5.5.5.5.5.5.5.5.5.5.5.5.5.5.5.5.5.5.5.5.5.5.5.5.5.5.5.5.5.5.5.5.5.5.5.5.5.5.5.5.5.5.5.5.5.5.5.5.5.5.5.5.5.5.5.5.5.5.5.5.5.5.5.5.5.5.5.5.5.5.5.5.5.5.5.5.5.5.5.5.5.5.5.5.5.5.5.5.5.5.5.5.5.5.5.5.5.5.5.5.5.5.5.5.5.5.5A448.56,448.56,0,0,0,525.71,998.7C781.39,985.75,986.4,780.74,999.35,525.06Z"/><rect class="cls-3" x="900" y="449.35" width="100" height="100" rx="50"/><path class="cls-4" d="M500,49.35c-248.53,0-450,201.47-450,450s201.47,450,450,450,450-201.47,450-450S748.53,49.35,500,49.35Zm0,650c-110.46,0-200-89.54-200-200s89.54-200,200-200,200,89.54,200,200S610.46,699.35,500,699.35Z"/><path class="cls-5" d="M946.55,443.45,733.17,231.18l63.28-17c1.17.09,2.36.13,3.55.13a49.84,49.84,0,0,0,35.35-14.65l.19-.2A448.15,448.15,0,0,1,946.55,443.45Z"/><polygon class="cls-6" points="816.82 208.76 796.45 214.22 733.17 231.18 736.06 220.4 750.13 167.9 755.59 147.53 816.82 208.76"/><path class="cls-3" d="M850,164.35a49.81,49.81,0,0,1-14.46,35.15l-.19.2A49.84,49.84,0,0,1,800,214.35c-1.19,0-2.38,0-3.55-.13a50,50,0,0,1-46.32-46.32c-.09-1.17-.13-2.36-.13-3.55a49.81,49.81,0,0,1,11.17-31.49,49.07,49.07,0,0,1,3.48-3.86,50,50,0,0,1,66.53-3.72,49,49,0,0,1,4.17,3.72A49.84,49.84,0,0,1,850,164.35Z"/><path class="cls-7" d="M500,99.35v-25c-234.72,0-425,190.28-425,425h25C100,278.44,279.09,99.35,500,99.35Z"/><path class="cls-7" d="M500,149.35v-25c-207.11,0-375,167.89-375,375h25C150,306.05,306.7,149.35,500,149.35Z"/><path class="cls-7" d="M500,199.35v-25c-179.49,0-325,145.51-325,325h25C200,333.66,334.31,199.35,500,199.35Z"/><circle class="cls-7" cx="87.5" cy="499.35" r="12.5"/><circle class="cls-7" cx="137.5" cy="499.35" r="12.5"/><circle class="cls-7" cx="187.5" cy="499.35" r="12.5"/><circle class="cls-7" cx="500" cy="186.85" r="12.5"/><circle class="cls-7" cx="500" cy="136.85" r="12.5"/><circle class="cls-7" cx="500" cy="86.85" r="12.5"/><path class="cls-3" d="M1000,496.61C999.2,348.72,934.21,216,831.46,125L796,160.43a453.31,453.31,0,0,1,55.69,58.2l.08.1q5.13,6.44,10,13.06l.27.36q4.82,6.51,9.4,13.21l.34.5q4.54,6.64,8.85,13.46l.36.57q2.16,3.42,4.26,6.89l0,.05q2.07,3.44,4.08,6.9l.28.48c1.34,2.32,2.66,4.64,4,7l.27.5q1.92,3.45,3.76,6.93l.12.22c1.25,2.36,2.48,4.74,3.69,7.12l.38.75q3.6,7.11,7,14.38l.39.85q3.33,7.26,6.41,14.66c.11.27.22.54.34.81q3.09,7.48,5.92,15.09c.08.21.16.41.23.62,1,2.57,1.88,5.14,2.78,7.73a1.34,1.34,0,0,1,.07.18c.9,2.59,1.79,5.2,2.64,7.82a1.55,1.55,0,0,1,.08.23q1.31,4,2.53,8l.1.34q2.46,8,4.62,16.17l.09.33q2.18,8.19,4,16.52l0,.15A451.75,451.75,0,0,1,950,499.35h50C1000,498.44,1000,497.52,1000,496.61Z"/><circle class="cls-2" cx="500" cy="499.35" r="100"/><path class="cls-6" d="M500,349.35h0v50h0a100,100,0,0,1,0,200h0v50h0a150,150,0,0,0,0-300Z"/><polygon class="cls-6" points="500 399.35 400 399.35 350 349.35 500 349.35 500 399.35"/><polygon class="cls-6" points="500 649.35 487.5 649.35 437.5 599.35 500 599.35 500 649.35"/><polygon class="cls-6" points="400 836.85 400 824.35 350 774.35 350 836.85 400 836.85"/><polygon class="cls-6" points="412.5 599.35 400 599.35 362.5 599.35 350 599.35 587.5 836.85 600 836.85 637.5 836.85 650 836.85 412.5 599.35"/></g></g></svg>