<?xml version="1.0" encoding="UTF-8"?>
<svg xmlns="http://www.w3.org/2000/svg" xmlns:xlink="http://www.w3.org/1999/xlink" width="50pt" height="50pt" viewBox="0 0 50 50" version="1.1">
<defs>
<linearGradient id="linear0" gradientUnits="userSpaceOnUse" x1="129.049" y1="158.834" x2="155.059" y2="81.5838" gradientTransform="matrix(0.166666,0,0,0.166666,0,0)">
<stop offset="0.00189592" style="stop-color:rgb(65.098039%,10.980392%,19.215686%);stop-opacity:1;"/>
<stop offset="0.5" style="stop-color:rgb(98.431373%,5.882353%,19.607843%);stop-opacity:1;"/>
<stop offset="1" style="stop-color:rgb(100%,27.843137%,27.843137%);stop-opacity:1;"/>
</linearGradient>
<linearGradient id="linear1" gradientUnits="userSpaceOnUse" x1="125.778" y1="177.086" x2="80.2603" y2="231.187" gradientTransform="matrix(0.166666,0,0,0.166666,0,0)">
<stop offset="0.00189592" style="stop-color:rgb(65.098039%,10.980392%,19.215686%);stop-opacity:1;"/>
<stop offset="0.5" style="stop-color:rgb(98.431373%,5.882353%,19.607843%);stop-opacity:1;"/>
<stop offset="1" style="stop-color:rgb(100%,27.843137%,27.843137%);stop-opacity:1;"/>
</linearGradient>
<linearGradient id="linear2" gradientUnits="userSpaceOnUse" x1="237.693" y1="246.767" x2="104.868" y2="134.404" gradientTransform="matrix(0.166666,0,0,0.166666,0,0)">
<stop offset="0.00189592" style="stop-color:rgb(65.098039%,10.980392%,19.215686%);stop-opacity:1;"/>
<stop offset="0.5" style="stop-color:rgb(98.431373%,5.882353%,19.607843%);stop-opacity:1;"/>
<stop offset="1" style="stop-color:rgb(100%,27.843137%,27.843137%);stop-opacity:1;"/>
</linearGradient>
</defs>
<g id="surface1">
<path style=" stroke:none;fill-rule:nonzero;fill:url(#linear0);" d="M 33.699219 31.601562 C 31.980469 30.847656 28.511719 26.546875 27.445312 24.929688 L 28.640625 24.929688 C 30.625 24.929688 32.292969 23.445312 32.5 21.488281 C 32.5 21.382812 32.5 21.304688 32.527344 21.226562 C 32.527344 21.175781 32.527344 21.125 32.527344 21.046875 C 32.527344 18.882812 30.753906 17.160156 28.640625 17.160156 L 16.28125 17.160156 C 12.476562 17.160156 9.375 14.054688 9.375 10.25 C 9.375 9.730469 9.792969 9.3125 10.289062 9.3125 L 28.640625 9.3125 C 34.378906 9.3125 40.347656 13.898438 40.347656 21.019531 C 40.347656 25.710938 37.609375 29.726562 33.699219 31.601562 Z M 33.699219 31.601562 "/>
<path style=" stroke:none;fill-rule:nonzero;fill:url(#linear1);" d="M 22.851562 31.5 L 22.851562 37.445312 C 22.851562 39.191406 21.421875 40.625 19.671875 40.625 L 15.945312 40.625 C 15.421875 40.625 15.007812 40.207031 15.007812 39.710938 L 15.007812 26.257812 C 15.03125 21.59375 20.195312 27.929688 22.851562 31.5 Z M 22.851562 31.5 "/>
<path style=" stroke:none;fill-rule:nonzero;fill:url(#linear2);" d="M 27.414062 24.929688 L 26.242188 23.679688 C 25.042969 22.398438 22.644531 21.359375 20.898438 21.359375 L 18.1875 21.359375 C 16.4375 21.359375 15.007812 22.789062 15.007812 24.539062 L 15.007812 26.492188 C 15.007812 25.632812 15.242188 25.085938 15.605469 24.90625 C 16.023438 24.671875 16.625 24.90625 17.300781 25.609375 L 18.054688 26.414062 L 22.851562 31.523438 L 30.046875 39.164062 C 30.9375 40.101562 32.164062 40.625 33.4375 40.625 L 39.460938 40.625 C 39.929688 40.625 40.347656 40.335938 40.53125 39.921875 C 40.710938 39.476562 40.632812 38.984375 40.320312 38.640625 L 33.699219 31.601562 Z M 27.414062 24.929688 "/>
</g>
</svg>
